<svg xmlns="http://www.w3.org/2000/svg" xmlns:xlink="http://www.w3.org/1999/xlink" width="396" zoomAndPan="magnify" viewBox="0 0 297 296.999993" height="396" preserveAspectRatio="xMidYMid meet" version="1.0"><defs><clipPath id="d8d4672c59"><path d="M 50.152344 25.9375 L 247.277344 25.9375 L 247.277344 223.0625 L 50.152344 223.0625 Z M 50.152344 25.9375 " clip-rule="nonzero"/></clipPath><clipPath id="8062e55124"><path d="M 148.714844 25.9375 C 94.277344 25.9375 50.152344 70.066406 50.152344 124.5 C 50.152344 178.933594 94.277344 223.0625 148.714844 223.0625 C 203.148438 223.0625 247.277344 178.933594 247.277344 124.5 C 247.277344 70.066406 203.148438 25.9375 148.714844 25.9375 Z M 148.714844 25.9375 " clip-rule="nonzero"/></clipPath><clipPath id="cf3bd9d249"><path d="M 149.628906 25.9375 L 247.277344 25.9375 L 247.277344 119.777344 L 149.628906 119.777344 Z M 149.628906 25.9375 " clip-rule="nonzero"/></clipPath><clipPath id="1b029ddf3b"><path d="M 51.664062 27.449219 L 245.765625 27.449219 L 245.765625 221.550781 L 51.664062 221.550781 Z M 51.664062 27.449219 " clip-rule="nonzero"/></clipPath><clipPath id="71eaa7db4e"><path d="M 148.714844 27.449219 C 95.113281 27.449219 51.664062 70.902344 51.664062 124.5 C 51.664062 178.097656 95.113281 221.550781 148.714844 221.550781 C 202.3125 221.550781 245.765625 178.097656 245.765625 124.5 C 245.765625 70.902344 202.3125 27.449219 148.714844 27.449219 Z M 148.714844 27.449219 " clip-rule="nonzero"/></clipPath><clipPath id="b9d53169bc"><path d="M 149.613281 27.449219 L 245.765625 27.449219 L 245.765625 119.851562 L 149.613281 119.851562 Z M 149.613281 27.449219 " clip-rule="nonzero"/></clipPath></defs><g clip-path="url(#d8d4672c59)"><g clip-path="url(#8062e55124)"><path fill="#ffffff" d="M 50.152344 25.9375 L 247.277344 25.9375 L 247.277344 223.0625 L 50.152344 223.0625 Z M 50.152344 25.9375 " fill-opacity="1" fill-rule="nonzero"/></g></g><g clip-path="url(#cf3bd9d249)"><path fill="#ffffff" d="M 149.628906 25.9375 L 247.136719 25.9375 L 247.136719 119.777344 L 149.628906 119.777344 Z M 149.628906 25.9375 " fill-opacity="1" fill-rule="nonzero"/></g><g clip-path="url(#1b029ddf3b)"><g clip-path="url(#71eaa7db4e)"><path fill="#799dfb" d="M 51.664062 27.449219 L 245.765625 27.449219 L 245.765625 221.550781 L 51.664062 221.550781 Z M 51.664062 27.449219 " fill-opacity="1" fill-rule="nonzero"/></g></g><g clip-path="url(#b9d53169bc)"><path fill="#799dfb" d="M 149.613281 27.449219 L 245.625 27.449219 L 245.625 119.851562 L 149.613281 119.851562 Z M 149.613281 27.449219 " fill-opacity="1" fill-rule="nonzero"/></g></svg>