<svg xmlns="http://www.w3.org/2000/svg" xmlns:xlink="http://www.w3.org/1999/xlink" width="396" zoomAndPan="magnify" viewBox="0 0 297 206.249992" height="275" preserveAspectRatio="xMidYMid meet" version="1.0"><defs><clipPath id="e8858815b1"><path d="M 179 137 L 203.867188 137 L 203.867188 158.117188 L 179 158.117188 Z M 179 137 " clip-rule="nonzero"/></clipPath></defs><path fill="#88c057" d="M 197.910156 114.285156 C 197.910156 115.632812 197.011719 116.53125 195.664062 116.53125 C 187.796875 116.308594 171.609375 120.355469 171.609375 120.355469 C 115.410156 138.113281 103.046875 72.921875 103.046875 72.921875 C 125.304688 56.289062 150.480469 47.519531 175.207031 66.851562 C 194.765625 82.140625 197.460938 106.417969 197.910156 114.285156 Z M 197.910156 114.285156 " fill-opacity="1" fill-rule="nonzero"/><path fill="#83b256" d="M 171.609375 120.355469 C 115.410156 138.113281 103.046875 72.921875 103.046875 72.921875 C 103.273438 72.699219 103.496094 72.472656 103.722656 72.472656 C 107.09375 85.285156 122.832031 132.042969 171.386719 116.757812 C 171.386719 116.757812 187.796875 112.710938 195.4375 112.9375 C 196.335938 112.9375 197.238281 112.484375 197.460938 111.585938 C 198.359375 119.90625 198.136719 113.835938 171.609375 120.355469 Z M 171.609375 120.355469 " fill-opacity="1" fill-rule="nonzero"/><path fill="#638b3f" d="M 125.078125 88.433594 C 132.046875 100.347656 149.128906 111.585938 149.128906 111.585938 C 149.128906 111.585938 135.867188 97.648438 130.472656 90.679688 C 143.511719 95.851562 159.023438 100.121094 173.632812 100.347656 C 173.632812 100.347656 148.90625 93.152344 124.851562 82.140625 C 134.519531 81.238281 148.007812 81.015625 148.007812 81.015625 C 148.007812 81.015625 132.269531 77.644531 119.234375 79.441406 C 111.816406 75.84375 104.621094 71.800781 98.328125 67.753906 C 97.652344 67.304688 94.058594 70.898438 95.40625 72.25 C 96.304688 73.597656 108.21875 81.464844 125.078125 88.433594 Z M 125.078125 88.433594 " fill-opacity="1" fill-rule="nonzero"/><path fill="#98d862" d="M 192.515625 121.703125 C 192.066406 120.578125 190.492188 120.578125 190.042969 121.703125 C 187.121094 128.894531 179.476562 142.382812 179.476562 147.105469 C 179.476562 152.949219 184.648438 157.894531 191.167969 157.894531 C 197.6875 157.894531 202.855469 153.171875 202.855469 147.105469 C 203.082031 142.382812 195.664062 128.894531 192.515625 121.703125 Z M 192.515625 121.703125 " fill-opacity="1" fill-rule="nonzero"/><g clip-path="url(#e8858815b1)"><path fill="#88c057" d="M 199.933594 137.4375 C 202.632812 145.53125 196.113281 151.601562 188.917969 151.601562 C 185.097656 151.601562 181.726562 150.027344 179.703125 147.554688 C 179.925781 153.398438 185.097656 158.117188 191.390625 158.117188 C 197.910156 158.117188 203.082031 153.171875 203.082031 147.328125 C 203.082031 145.082031 201.730469 141.484375 199.933594 137.4375 Z M 199.933594 137.4375 " fill-opacity="1" fill-rule="nonzero"/></g></svg>